<?xml version="1.0" encoding="UTF-8"?>
<svg version="1.1" xmlns="http://www.w3.org/2000/svg" width="1236" height="1253">
<path d="M0 0 C1.21520325 -0.00067474 2.43040649 -0.00134949 3.68243408 -0.00204468 C24.18042344 0.01595579 44.40381006 0.7340146 64.75 3.25 C65.44254883 3.33485657 66.13509766 3.41971313 66.84863281 3.50714111 C111.09628001 8.99351308 154.52317114 20.6550805 195.15917969 39.07568359 C197.48895203 40.13167728 199.82545594 41.17081067 202.1640625 42.20703125 C222.15732491 51.19855996 240.80363644 62.7206958 258.75 75.25 C259.44029297 75.73178711 260.13058594 76.21357422 260.84179688 76.70996094 C274.87587346 86.58709076 288.19446067 97.55664363 300.75 109.25 C301.39501465 109.84603027 302.0400293 110.44206055 302.70458984 111.05615234 C304.95386361 113.13631535 307.19650192 115.22342587 309.4375 117.3125 C310.15099609 117.97362793 310.86449219 118.63475586 311.59960938 119.31591797 C315.68776536 123.15022798 319.48156119 127.11037272 323.1262207 131.36791992 C325.04719865 133.59447517 327.05201788 135.72773868 329.07275391 137.86328125 C335.29197169 144.45058822 340.95254326 151.35593851 346.44726562 158.55322266 C347.68483173 160.16512004 348.94343688 161.76079987 350.203125 163.35546875 C402.83424426 230.33281246 437.41636424 311.90954625 452.75 412.25 C452.85441406 413.18021973 452.95882812 414.11043945 453.06640625 415.06884766 C461.38032768 492.8803117 447.82512753 574.36775766 414.75 645.25 C414.27949219 646.26642578 413.80898437 647.28285156 413.32421875 648.33007812 C404.58527267 667.13379983 395.00588433 685.19953536 384.0625 702.8125 C383.45688232 703.78775635 382.85126465 704.7630127 382.22729492 705.76782227 C378.00547227 712.47273346 373.48002857 718.89525921 368.75 725.25 C368.21286377 725.97662842 367.67572754 726.70325684 367.12231445 727.4519043 C353.62099468 745.67307236 339.52316079 763.77594321 323.29296875 779.671875 C321.53157881 781.42515337 321.53157881 781.42515337 319.3125 784.25 C316.70923274 787.29772752 313.95375242 789.75136477 310.91015625 792.33984375 C308.64348004 794.34419215 306.54636736 796.4557715 304.4375 798.625 C300.34054742 802.77836501 295.97041242 806.43617006 291.41796875 810.078125 C289.05230695 812.00390532 286.80428037 813.995792 284.5625 816.0625 C278.00247103 821.9387097 270.86938911 827.07973195 263.75 832.25 C262.97156738 832.81557617 262.19313477 833.38115234 261.39111328 833.96386719 C194.43936312 882.32917348 113.11393389 908.90537612 -66.25 915.25 C-67.98032471 915.01724365 -67.98032471 915.01724365 -69.74560547 914.77978516 C-77.27202348 913.74059922 -84.76354772 912.54398629 -92.25 911.25 C-93.08901855 911.11013672 -93.92803711 910.97027344 -94.79248047 910.82617188 C-128.64233582 905.10273299 -162.11023556 893.46508886 -193.25 879.25 C-194.16023926 878.83669434 -195.07047852 878.42338867 -196.00830078 877.99755859 C-223.58656144 865.38696615 -250.49025455 850.19968828 -274.25 831.25 C-274.85328125 830.77385254 -275.4565625 830.29770508 -276.078125 829.80712891 C-284.50785515 823.14258093 -292.61705407 816.24032025 -300.44140625 808.875 C-302.64948425 806.81126089 -304.88109595 804.8254474 -307.1875 802.875 C-315.47317029 795.69996211 -323.34114374 787.73005917 -330.41796875 779.36328125 C-332.42473721 777.04843747 -334.50461927 774.81449037 -336.59692383 772.57714844 C-341.30340401 767.54052836 -345.83465935 762.45770953 -350.07421875 757.015625 C-351.75885732 754.87428908 -353.46723391 752.76775196 -355.20703125 750.671875 C-363.06193127 741.18961783 -370.32407992 731.42855311 -377.25 721.25 C-377.82427734 720.40711426 -378.39855469 719.56422852 -378.99023438 718.69580078 C-390.31942763 702.01126726 -400.62469629 684.96616259 -410.25 667.25 C-410.85972656 666.13842529 -411.46945312 665.02685059 -412.09765625 663.8815918 C-416.87062288 655.11627134 -421.15463444 646.21745544 -425.125 637.0625 C-425.42303528 636.378461 -425.72107056 635.694422 -426.02813721 634.98965454 C-442.90964819 596.12139564 -454.69514809 555.2860477 -460.25 513.25 C-460.40098145 512.12787109 -460.55196289 511.00574219 -460.70751953 509.84960938 C-465.34606055 473.76206049 -465.13612376 436.2924733 -460.25 400.25 C-460.04914795 398.65599365 -460.04914795 398.65599365 -459.84423828 397.02978516 C-450.75702937 325.59881568 -424.60089697 254.29452849 -383.25 195.25 C-382.76063965 194.54955566 -382.2712793 193.84911133 -381.76708984 193.12744141 C-374.49736053 182.77413335 -366.86742446 172.78770642 -358.76708984 163.07128906 C-357.35355389 161.37431799 -355.95115968 159.66876665 -354.55078125 157.9609375 C-342.63070022 143.534526 -329.68161273 129.3561537 -315.45703125 117.1796875 C-313.30438355 115.29754952 -311.21430088 113.35759236 -309.12792969 111.40258789 C-302.16345085 104.90308644 -294.84466187 98.99448884 -287.25 93.25 C-286.54488281 92.71503906 -285.83976563 92.18007812 -285.11328125 91.62890625 C-268.17638475 78.83016946 -250.66173231 66.83327262 -232.25 56.25 C-231.59596191 55.86956543 -230.94192383 55.48913086 -230.26806641 55.09716797 C-201.9608648 38.68690445 -171.95551217 25.44970142 -140.25 17.25 C-139.25516602 16.9926709 -138.26033203 16.7353418 -137.23535156 16.47021484 C-111.71831336 9.99873985 -85.72140894 5.74263921 -59.5625 2.9375 C-58.80552826 2.85618835 -58.04855652 2.77487671 -57.26864624 2.69110107 C-38.16499891 0.66926122 -19.20495814 0.00961862 0 0 Z " fill="#75A8C7" transform="translate(625.25,-0.25)"/>
<path d="M0 0 C0.66 0.33 1.32 0.66 2 1 C-4.78462368 5.26362481 -11.61037091 9.37723064 -18.625 13.25 C-27.99304047 18.45232465 -36.99205503 24.20284282 -46 30 C-47.24668457 30.79760742 -47.24668457 30.79760742 -48.51855469 31.61132812 C-66.69748556 43.24528388 -84.07728395 55.60465315 -101 69 C-102.43472656 70.12728516 -102.43472656 70.12728516 -103.8984375 71.27734375 C-113.95593814 79.23546318 -123.6616051 87.5640036 -133.05078125 96.296875 C-135.20047653 98.29119736 -137.40521906 100.20656632 -139.6328125 102.11328125 C-144.65505195 106.49176578 -149.34684564 111.19670289 -154.0456543 115.9152832 C-155.5599258 117.43491668 -157.0794743 118.94912517 -158.59960938 120.46289062 C-163.94426729 125.80394915 -169.08792587 131.25531368 -174 137 C-175.4132355 138.5448126 -176.82940409 140.08695325 -178.25 141.625 C-183.38758169 147.31397462 -188.053032 153.33646233 -192.74365234 159.39257812 C-194.42117322 161.53886601 -196.14906729 163.64254533 -197.875 165.75 C-208.11398308 178.5434942 -217.33169624 192.10612306 -226 206 C-226.46728516 206.74378906 -226.93457031 207.48757812 -227.41601562 208.25390625 C-283.25448438 297.56523245 -306.2469727 402.17322568 -286 552 C-285.62536621 553.83401367 -285.62536621 553.83401367 -285.24316406 555.70507812 C-281.20667217 575.14150299 -276.09493832 594.09584393 -270 613 C-269.63648438 614.12776855 -269.27296875 615.25553711 -268.8984375 616.41748047 C-251.67800889 669.20150108 -225.5081052 718.51255409 -191 762 C-190.50387207 762.6276123 -190.00774414 763.25522461 -189.49658203 763.90185547 C-182.84025017 772.29551248 -175.97138808 780.38680039 -168.62890625 788.1875 C-166.54432398 790.41766231 -164.53573712 792.67284075 -162.5625 795 C-155.65294658 802.97646976 -147.99125733 810.50388528 -139.94921875 817.33203125 C-137.62814271 819.31820253 -135.38079916 821.37755317 -133.125 823.4375 C-128.23655956 827.83783595 -123.19380955 831.9665096 -118 836 C-117.39800781 836.46921875 -116.79601562 836.9384375 -116.17578125 837.421875 C-93.27592598 855.23787242 -69.40480486 870.9726625 -44 885 C-43.16275391 885.4626123 -42.32550781 885.92522461 -41.46289062 886.40185547 C17.60036357 918.77173622 84.12693371 938.62926347 151 946 C151.76135254 946.08613556 152.52270508 946.17227112 153.30712891 946.26101685 C168.83945923 947.98090106 184.25633099 948.36286934 199.875 948.3125 C201.08199554 948.31034485 202.28899109 948.3081897 203.53256226 948.30596924 C222.5260691 948.25168818 241.18089986 947.73696306 260 945 C260.65522644 944.90525391 261.31045288 944.81050781 261.98553467 944.71289062 C338.11166288 933.59010201 414.45036076 904.68625887 476 858 C476.93585937 857.30648437 477.87171875 856.61296875 478.8359375 855.8984375 C501.12337522 839.34372654 521.71715319 821.35080312 541.375 801.75 C541.89737244 801.2303064 542.41974487 800.71061279 542.95794678 800.1751709 C548.85789449 794.29817477 554.61871347 788.36263263 560 782 C560.87690536 780.99027811 561.75446768 779.98112623 562.6328125 778.97265625 C570.10824911 770.24350222 577.13010092 761.21168073 584 752 C584.54446777 751.27119629 585.08893555 750.54239258 585.64990234 749.79150391 C598.84862954 732.042844 610.32725061 713.36172927 621 694 C621.495 693.1032959 621.99 692.2065918 622.5 691.28271484 C631.06982462 675.62995249 638.21420044 659.4946329 645 643 C645.34901367 642.16694336 645.69802734 641.33388672 646.05761719 640.47558594 C681.64346641 555.4339588 687.79595149 456.78440139 646.44970703 279.91552734 C636.73983518 256.31860229 625.28513324 233.77747592 612 212 C611.13012228 210.55343716 610.26032338 209.10682692 609.390625 207.66015625 C593.20657571 181.01676074 573.92192189 155.55222414 552.59765625 132.80859375 C550.67384134 130.72855928 548.82867688 128.63035847 546.9921875 126.4765625 C542.18547266 120.96058555 536.98342133 115.8340448 531.80297852 110.67260742 C530.066064 108.941053 528.33456111 107.20421641 526.60351562 105.46679688 C521.43785238 100.29807845 516.26633081 95.20518859 510.7019043 90.46118164 C508.53266044 88.5987624 506.46349333 86.64236292 504.38720703 84.67773438 C497.82827309 78.48518583 490.93809696 72.88699764 483.79150391 67.39306641 C481.38185699 65.51933442 479.01453132 63.59563843 476.64477539 61.671875 C449.84518166 39.96081173 420.75028624 20.82309623 390.35302734 4.51098633 C386.10126416 2.20252832 386.10126416 2.20252832 385 0 C389.80397463 0.55630155 393.96755941 1.53868995 398.48046875 3.265625 C399.71273193 3.73677734 400.94499512 4.20792969 402.21459961 4.69335938 C403.53930407 5.21120645 404.86359428 5.7301143 406.1875 6.25 C406.86684601 6.51466064 407.54619202 6.77932129 408.24612427 7.05200195 C422.79987385 12.73669217 436.93884956 19.18608833 451 26 C452.04236816 26.49999512 453.08473633 26.99999023 454.15869141 27.51513672 C498.50224112 48.83969456 540.1872353 76.6606753 577.625 108.5625 C578.17712158 109.03155762 578.72924316 109.50061523 579.2980957 109.98388672 C586.98508975 116.52576975 594.5067901 123.23783496 602 130 C602.69359619 130.61125732 603.38719238 131.22251465 604.10180664 131.85229492 C610.6460989 137.65751361 616.87986916 143.72542454 623.05102539 149.9206543 C624.69239796 151.56741404 626.33908819 153.20872095 627.98632812 154.84960938 C633.53484421 160.39420831 638.92854947 166.01103596 644 172 C645.08024265 173.23854144 646.16227832 174.47552129 647.24609375 175.7109375 C653.32809973 182.68402155 659.31536023 189.6960992 665 197 C666.09634766 198.38445312 666.09634766 198.38445312 667.21484375 199.796875 C674.87708444 209.58268645 681.95305686 219.76581478 689 230 C689.43779785 230.63067383 689.8755957 231.26134766 690.32666016 231.91113281 C698.74032019 244.05463067 706.26013793 256.78270186 713.85913086 269.44458008 C715.30085672 271.84530463 716.75608236 274.23710905 718.22094727 276.6237793 C723.83925492 285.81476182 728.92185196 295.21673866 733.8125 304.8125 C734.20085022 305.57178802 734.58920044 306.33107605 734.98931885 307.1133728 C773.66526216 382.8144931 797.95785809 464.18970617 805 549 C805.09571289 550.08168457 805.19142578 551.16336914 805.29003906 552.27783203 C806.42076122 567.10893499 806.24456161 582.00934881 806.25 596.875 C806.25088371 597.98024332 806.25088371 597.98024332 806.25178528 599.10781479 C806.26426241 621.22093053 805.8785996 643.03926708 803 665 C802.85014648 666.22605957 802.70029297 667.45211914 802.54589844 668.71533203 C801.51116088 677.16788566 800.31759779 685.5870965 799 694 C798.74162354 695.66313232 798.74162354 695.66313232 798.47802734 697.35986328 C793.48839514 728.79500686 785.70802272 759.70623776 776 790 C775.48373047 791.61914307 775.48373047 791.61914307 774.95703125 793.27099609 C750.03764823 870.95311491 711.43421716 945.3305399 659.38964844 1008.30615234 C657.47737024 1010.63703536 655.61443338 1013.00576944 653.75 1015.375 C650.36918401 1019.61703438 646.78719653 1023.64490905 643.1328125 1027.65234375 C641.32725829 1029.63977613 639.56263855 1031.6515348 637.8125 1033.6875 C625.73913628 1047.50941985 613.04742184 1061.42181923 599.0078125 1073.2734375 C596.8705007 1075.11135932 594.80358979 1077.01766923 592.73828125 1078.93579102 C587.66639581 1083.64277538 582.49673433 1088.15428277 577.1015625 1092.4921875 C574.7232617 1094.41519646 572.36811313 1096.3569931 570.0234375 1098.3203125 C561.84862344 1105.15208808 553.58153062 1111.66576078 544.82177734 1117.72851562 C542.87443962 1119.08763314 540.94604546 1120.47091299 539.01953125 1121.859375 C528.60747111 1129.34067823 517.91409191 1136.2757474 507 1143 C506.07815918 1143.57282715 506.07815918 1143.57282715 505.13769531 1144.15722656 C432.36487351 1189.30523782 349.16852126 1218.98516849 55.34771729 1222.51882935 C29.78598584 1216.47253102 4.63875263 1209.12032645 -20 1200 C-21.73854248 1199.35659668 -21.73854248 1199.35659668 -23.51220703 1198.70019531 C-41.42270553 1192.00268666 -58.78628876 1184.31554666 -76 1176 C-77.05203613 1175.4932373 -78.10407227 1174.98647461 -79.18798828 1174.46435547 C-109.56844167 1159.7554839 -138.40850261 1142.43063197 -166 1123 C-166.95003906 1122.33226562 -167.90007812 1121.66453125 -168.87890625 1120.9765625 C-171.61226548 1119.01744118 -174.30916683 1117.01728294 -177 1115 C-177.75007324 1114.43941895 -178.50014648 1113.87883789 -179.27294922 1113.30126953 C-189.41023202 1105.70939539 -199.39294292 1098.03025723 -208.91796875 1089.6796875 C-211.86007839 1087.10037958 -214.88771798 1084.63888095 -217.9375 1082.1875 C-221.59405214 1079.22056076 -224.97793483 1076.15454108 -228.23828125 1072.76074219 C-229.90383606 1071.09611064 -231.62271641 1069.58410891 -233.421875 1068.06640625 C-238.82536629 1063.36911996 -243.84973986 1058.30003578 -248.90014648 1053.23022461 C-250.5592732 1051.56573723 -252.22368051 1049.90666553 -253.88867188 1048.24804688 C-259.46954141 1042.67061557 -264.89092128 1037.01756413 -270 1031 C-271.24810193 1029.62327687 -272.49771435 1028.24791867 -273.75 1026.875 C-278.67793169 1021.34540223 -283.17232817 1015.4868557 -287.71435547 1009.64111328 C-289.46752149 1007.40321317 -291.2659009 1005.20310233 -293.0625 1003 C-301.24885017 992.77956689 -308.54490218 981.87800619 -315.72460938 970.9375 C-316.99012937 969.01499489 -318.26790391 967.10107506 -319.546875 965.1875 C-339.46098707 935.16555202 -356.4543109 902.92902102 -371 870 C-371.40251984 869.08924713 -371.40251984 869.08924713 -371.81317139 868.16009521 C-380.93384432 847.47429211 -388.84203279 826.44059999 -396 805 C-396.22429687 804.32946594 -396.44859375 803.65893188 -396.6796875 802.96807861 C-416.95145962 742.18795631 -429.98588534 677.08332748 -430.203125 612.890625 C-430.21014757 611.48264027 -430.21723438 610.07465586 -430.22438049 608.66667175 C-430.24377075 604.19444314 -430.24881435 599.72226642 -430.25 595.25 C-430.25044186 594.48799915 -430.25088371 593.72599831 -430.25133896 592.94090652 C-430.25826869 570.15486276 -429.94673327 547.62803669 -427 525 C-426.82576522 523.59011682 -426.65245369 522.18011929 -426.47998047 520.77001953 C-414.655608 425.04894092 -381.23777676 331.68979972 -277.9375 184.8125 C-277.30473145 184.06625366 -277.30473145 184.06625366 -276.65917969 183.30493164 C-266.90884047 171.95780297 -256.4517486 161.28934801 -245.86230469 150.73193359 C-243.73515216 148.61018991 -241.61346439 146.48308509 -239.4921875 144.35546875 C-238.11490417 142.9788456 -236.73731101 141.60253234 -235.359375 140.2265625 C-234.738349 139.60351227 -234.117323 138.98046204 -233.47747803 138.33853149 C-229.1460024 134.02976147 -224.63574484 129.9780374 -220 126 C-218.84751623 125.00276596 -217.69514958 124.00539653 -216.54296875 123.0078125 C-195.71509405 105.08551339 -174.04547898 88.35679607 -151.02832031 73.33056641 C-148.82052802 71.88226742 -146.62518525 70.41608169 -144.4296875 68.94921875 C-125.99912418 56.70969548 -106.66999423 46.10128765 -87 36 C-85.98679687 35.47696289 -85.98679687 35.47696289 -84.953125 34.94335938 C-60.38898207 22.29862832 -34.77413332 11.50028083 -8.44140625 3.12109375 C-5.06423614 2.07688049 -5.06423614 2.07688049 -2.15234375 0.78515625 C-1.44207031 0.52605469 -0.73179687 0.26695313 0 0 Z M526 82 C526.33 82.66 526.66 83.32 527 84 C527.66 83.67 528.32 83.34 529 83 C528.01 82.67 527.02 82.34 526 82 Z M-148 89 C-148.99 90.485 -148.99 90.485 -150 92 C-148.68 91.34 -147.36 90.68 -146 90 C-146.66 89.67 -147.32 89.34 -148 89 Z M530 85 C532.69920288 88.59268902 535.44928138 91.32020393 539 94.0625 C543.91216474 97.99092013 548.33038055 102.20532581 552.72631836 106.69750977 C555.41027103 109.43300132 558.12367957 112.04098699 561.0625 114.5 C566.00255917 118.71538106 570.23933375 123.59176954 574.56787109 128.41503906 C575.97646644 129.97395502 577.40056711 131.51676718 578.83203125 133.0546875 C584.82209736 139.494844 590.54192665 146.10047701 596 153 C596.51433594 153.64710938 597.02867187 154.29421875 597.55859375 154.9609375 C648.06924997 218.65335851 682.93760331 292.9179393 721.25 528.25 C721.25100708 529.16199158 721.25201416 530.07398315 721.25305176 531.01361084 C721.18344028 625.80191809 689.9870724 716.30549281 589.453125 873.24267578 C587.36384079 875.76933367 585.31028732 878.32467907 583.25 880.875 C579.73332218 885.17101484 576.08165718 889.32063937 572.3359375 893.41796875 C571.10404977 894.77963729 569.8767483 896.14638587 568.6940918 897.55102539 C562.8753389 904.4107266 556.45971143 910.69068975 550.09399414 917.03637695 C548.0673702 919.05764268 546.04614453 921.08419574 544.02539062 923.11132812 C537.85632253 929.28391242 531.70825195 935.40695364 525 941 C523.94312196 941.91173153 522.88710253 942.82445952 521.83203125 943.73828125 C514.40346216 950.07130457 506.83198799 956.17091241 499 962 C498.3390332 962.49226074 497.67806641 962.98452148 496.99707031 963.49169922 C479.50475649 976.45540246 461.37054485 988.14493059 442.33056641 998.70556641 C440.31109183 999.82721466 438.30112187 1000.96375223 436.29296875 1002.10546875 C405.18730283 1019.346895 371.20597674 1030.73765935 337 1040 C335.85418457 1040.31420898 334.70836914 1040.62841797 333.52783203 1040.95214844 C250.99628243 1063.3769888 164.02837513 1066.22553352 44 1038 C42.82115234 1037.63648438 41.64230469 1037.27296875 40.42773438 1036.8984375 C14.82311062 1028.89609303 -9.80090645 1018.53499776 -34 1007 C-34.92087402 1006.56220215 -35.84174805 1006.1244043 -36.79052734 1005.67333984 C-51.65846271 998.55456079 -65.86909512 990.4760441 -80 982 C-80.81452637 981.5153125 -81.62905273 981.030625 -82.46826172 980.53125 C-99.18224603 970.5784947 -115.71999112 960.06436522 -131 948 C-131.90492188 947.28714844 -132.80984375 946.57429687 -133.7421875 945.83984375 C-139.80263779 940.97259826 -145.55058552 935.82537441 -151.2421875 930.5390625 C-153.39704597 928.55512764 -155.57543102 926.63843486 -157.8125 924.75 C-166.56085233 917.15951783 -174.93233336 908.72167684 -182.40625 899.875 C-184.34325871 897.59616622 -186.35905625 895.39675343 -188.375 893.1875 C-193.10576093 887.93819023 -197.56997052 882.50376055 -202 877 C-202.92538408 875.86686303 -203.85118393 874.73406551 -204.77734375 873.6015625 C-216.45421131 859.25786412 -226.97112648 844.17572444 -237.25 828.8125 C-237.66797852 828.18955048 -238.08595703 827.56660095 -238.51660156 826.92477417 C-244.63977616 817.78472567 -250.42672749 808.48473865 -256 799 C-256.54962402 798.06921631 -257.09924805 797.13843262 -257.66552734 796.17944336 C-302.39643467 719.84756017 -331.3586087 632.52255027 -337 544 C-337.05639648 543.18515137 -337.11279297 542.37030273 -337.17089844 541.53076172 C-343.72780983 444.55443019 -322.05749631 346.53174598 -207.34179688 151.55224609 C-205.89402583 149.8774047 -204.46918455 148.18478767 -203.046875 146.48828125 C-197.4091099 139.78760684 -191.59141767 133.4482567 -185.328125 127.328125 C-183.52286254 125.52286254 -181.88985821 123.74798706 -180.3125 121.75 C-177.87438977 118.85062568 -175.25251978 116.56807554 -172.375 114.12109375 C-169.44439337 111.50379211 -166.69589398 108.73403241 -163.9375 105.9375 C-159.7864958 101.73380322 -155.57760149 97.74531031 -151 94 C-155.23988213 94 -157.40798117 96.37868971 -160.5625 98.9375 C-161.18874268 99.43749512 -161.81498535 99.93749023 -162.46020508 100.45263672 C-166.97648815 104.08948482 -171.30971417 107.89473253 -175.57421875 111.82421875 C-178.14434286 114.12946694 -180.80243454 116.28322045 -183.5 118.4375 C-188.11854224 122.17011594 -192.3044578 126.16610846 -196.41796875 130.4453125 C-198.47297554 132.47855674 -200.54691501 134.3629666 -202.734375 136.24609375 C-207.38306638 140.27528595 -211.72511106 144.57803784 -216.0625 148.9375 C-217.2081543 150.07735352 -217.2081543 150.07735352 -218.37695312 151.24023438 C-222.55419956 155.42462751 -226.56330323 159.69479818 -230.4206543 164.17553711 C-232.67649387 166.78148689 -235.02574182 169.2903985 -237.375 171.8125 C-242.48994816 177.35653986 -247.28822998 183.10834688 -252 189 C-252.94601712 190.16584965 -253.89266517 191.33118752 -254.83984375 192.49609375 C-305.77832987 255.35388764 -342.21174077 328.99017728 -378 514 C-378.0725853 515.03811325 -378.0725853 515.03811325 -378.14663696 516.09719849 C-379.12062413 530.57839317 -379.20091297 545.05314229 -379.1875 559.5625 C-379.18689575 560.77143921 -379.1862915 561.98037842 -379.18566895 563.22595215 C-379.12388116 608.89014078 -374.91928302 652.79834936 -360.80224609 696.515625 C-360.24625895 698.23739164 -359.69759867 699.96153489 -359.15478516 701.6875 C-350.31662422 729.7668199 -338.767796 756.52502386 -326 783 C-325.54915039 783.94552734 -325.09830078 784.89105469 -324.63378906 785.86523438 C-318.35284864 799.01549372 -311.19473627 811.57665298 -303.73291016 824.08984375 C-302.08588047 826.85577695 -300.45325013 829.62968945 -298.82421875 832.40625 C-292.62982328 842.91632309 -286.0787179 853.06579928 -279 863 C-278.49887695 863.70833984 -277.99775391 864.41667969 -277.48144531 865.14648438 C-266.0224464 881.32473456 -253.98601201 897.01613999 -241 912 C-240.36707031 912.73347656 -239.73414063 913.46695313 -239.08203125 914.22265625 C-237.39966303 916.15911212 -235.70397714 918.08254053 -234 920 C-233.36191406 920.71929688 -232.72382813 921.43859375 -232.06640625 922.1796875 C-213.51658131 943.0431489 -213.51658131 943.0431489 -193.16796875 962.109375 C-190.90121748 964.08614548 -188.7134488 966.13763749 -186.5246582 968.19995117 C-179.8478327 974.47361775 -172.85869794 980.16444337 -165.60205078 985.74902344 C-163.29455635 987.55085237 -161.05658751 989.4325998 -158.8125 991.3125 C-146.1795154 1001.69424582 -132.77604599 1011.19973062 -119 1020 C-118.24589844 1020.48259277 -117.49179687 1020.96518555 -116.71484375 1021.46240234 C-87.61135172 1039.99076916 -57.12289564 1056.33063407 -25 1069 C-23.99195313 1069.40250977 -22.98390625 1069.80501953 -21.9453125 1070.21972656 C39.96247187 1094.81896676 106.21060577 1109.96735786 173 1111 C174.05493652 1111.02046387 175.10987305 1111.04092773 176.19677734 1111.06201172 C268.68856623 1112.65058609 358.916324 1089.2129018 577.66357422 955.26611328 C582.65135908 950.42843104 587.57958478 945.53105939 592.5 940.625 C593.01891815 940.10876068 593.5378363 939.59252136 594.07247925 939.06063843 C599.93517061 933.22094211 605.64192468 927.3123455 611 921 C612.06874873 919.77337532 613.13905649 918.54810724 614.2109375 917.32421875 C620.60397557 909.98561223 626.93208332 902.61176665 633 895 C633.50611816 894.36787598 634.01223633 893.73575195 634.53369141 893.08447266 C643.02252957 882.45051227 650.95372849 871.5416102 658.51123047 860.22802734 C659.91826403 858.12232248 661.334543 856.02318754 662.75390625 853.92578125 C713.01283392 779.44397694 744.16183919 693.45646414 744.41467285 431.10534668 C736.75860454 392.23451647 725.69212139 353.43665773 710 317 C709.59990723 316.05753418 709.19981445 315.11506836 708.78759766 314.14404297 C687.59065907 264.31809376 659.87568111 218.57315965 625.45605469 176.77636719 C624.16038703 175.19567002 622.87987367 173.60257855 621.6015625 172.0078125 C616.17758319 165.25231481 610.39052062 158.90869313 604.47460938 152.58789062 C602.24634285 150.188446 600.06625291 147.74573176 597.875 145.3125 C592.98410887 139.9730992 587.92372174 134.81592949 582.8125 129.6875 C582.06403809 128.9344458 581.31557617 128.1813916 580.54443359 127.40551758 C576.42309915 123.29555296 572.21193569 119.35540053 567.80200195 115.55688477 C565.38142228 113.46556427 563.03706278 111.29551367 560.6875 109.125 C556.19488747 105.02843045 551.58585212 101.12976057 546.8515625 97.31640625 C544.78324549 95.63625284 542.74007495 93.94097441 540.7109375 92.21484375 C540.16493896 91.75207031 539.61894043 91.28929688 539.05639648 90.8125 C537.51298315 89.50161116 535.97319297 88.18646005 534.43359375 86.87109375 C532.24736985 84.79682458 532.24736985 84.79682458 530 85 Z " fill="#B2D6ED" transform="translate(430,16)"/>
<path d="M0 0 C0.66 0.28407715 1.32 0.5681543 2 0.86083984 C19.59879576 8.54781384 34.93289162 21.09952446 47 36 C47.83144531 37.01707031 48.66289063 38.03414062 49.51953125 39.08203125 C86.55742303 84.935336 104.83865394 142.92256418 116 200 C116.18836426 200.94794434 116.37672852 201.89588867 116.57080078 202.87255859 C119.13718127 215.87061339 120.95863817 228.79284776 122 242 C122.08685059 242.98258789 122.17370117 243.96517578 122.26318359 244.97753906 C123.13067449 255.56497737 123.24317978 266.13172535 123.25 276.75 C123.25067474 277.7002002 123.25134949 278.65040039 123.25204468 279.62939453 C123.23479859 294.97615473 122.45124343 309.82730341 120 325 C119.7824707 326.50868652 119.7824707 326.50868652 119.56054688 328.04785156 C112.42449791 377.33601658 95.00658655 428.77579305 60 465 C59.39929688 465.65226562 58.79859375 466.30453125 58.1796875 466.9765625 C37.63732926 488.75765591 5.31173382 507.12955607 -24 513 C-24.99 512.67 -25.98 512.34 -27 512 C-26.15743652 511.59442871 -26.15743652 511.59442871 -25.29785156 511.18066406 C-5.5144608 501.60598448 13.03273094 491.23490823 30.19873047 477.44287109 C31.7757923 476.17959711 33.37269141 474.9411697 34.97265625 473.70703125 C61.54830935 452.84573066 80.95630475 424.97250017 91.36816406 392.92089844 C91.92361584 391.23222201 92.51742874 389.55626528 93.1171875 387.8828125 C109.78200957 339.18019296 101.68904726 281.63231523 80 236 C64.98383989 206.14362893 41.59507712 181.86178959 15 162 C14.38382813 161.53271484 13.76765625 161.06542969 13.1328125 160.58398438 C-11.40251593 142.08234385 -39.29003685 128.74412268 -68.59765625 119.74072266 C-70.80198649 119.06105416 -72.9942793 118.35119289 -75.1875 117.63671875 C-99.52554169 110.00842062 -125.66669427 108.17579582 -151 107 C-150.22136418 102.46293046 -148.53676509 99.1237211 -146.125 95.25 C-145.72933838 94.60313232 -145.33367676 93.95626465 -144.92602539 93.28979492 C-140.49672349 86.09443568 -135.90439731 79.00215193 -131.26953125 71.93798828 C-130.13170883 70.2010586 -129.00276576 68.45831986 -127.875 66.71484375 C-121.03951464 56.2548974 -113.55287797 46.45063214 -105.07421875 37.26171875 C-103.19878414 35.21675333 -101.40967467 33.12380525 -99.625 31 C-87.68654108 17.39887899 -72.61912762 6.13633485 -56 -1 C-54.60587891 -1.6496875 -54.60587891 -1.6496875 -53.18359375 -2.3125 C-37.00293249 -8.65267747 -15.67666931 -6.94300763 0 0 Z " fill="#F5C890" transform="translate(621,111)"/>
<path d="M0 0 C11.57982188 7.13695144 22.81280622 14.61876095 32.76953125 23.92578125 C34.81160319 25.82480087 36.91451582 27.59837655 39.0625 29.375 C53.94921917 42.37467026 68.24493573 62.61811351 70.27929688 82.76611328 C71.69578426 106.60368607 63.89710553 125.58249826 48.41455078 143.43359375 C40.99408259 151.65066726 32.24822843 158.02835068 23 164 C22.06800781 164.60585938 21.13601563 165.21171875 20.17578125 165.8359375 C-14.90744603 187.46325474 -57.82403987 193.21966726 -98.25 193.25 C-99.1827475 193.25100708 -100.115495 193.25201416 -101.07650757 193.25305176 C-115.59707778 193.24246428 -129.67617926 192.52757286 -144 190 C-145.75383262 189.71829125 -147.50773923 189.43704272 -149.26171875 189.15625 C-189.29478799 182.4319454 -227.70607696 165.0079956 -261 142 C-260.34 141.67 -259.68 141.34 -259 141 C-256.57529709 142.08278718 -254.2369943 143.23005958 -251.875 144.4375 C-212.4358136 163.66778918 -168.52921854 166.80869744 -127.06616211 152.75219727 C-103.18384587 144.27073761 -82.46625549 131.29853639 -64 114 C-63.0615625 113.12730469 -62.123125 112.25460937 -61.15625 111.35546875 C-47.60834965 98.46608445 -37.21388109 83.1889719 -28 67 C-27.57090332 66.25024902 -27.14180664 65.50049805 -26.69970703 64.72802734 C-16.75498922 47.15438175 -9.73540024 28.5766283 -4.20629883 9.18457031 C-3.94357178 8.2715918 -3.68084473 7.35861328 -3.41015625 6.41796875 C-3.18465088 5.61125732 -2.95914551 4.8045459 -2.72680664 3.97338867 C-2 2 -2 2 0 0 Z " fill="#E4F1F9" transform="translate(747,473)"/>
<path d="M0 0 C2.75275601 2.30953339 5.40890425 4.71371973 8.04174805 7.15844727 C8.890354 7.94131104 8.890354 7.94131104 9.75610352 8.73999023 C37.00401181 34.16377078 54.5772008 67.84794624 68.04174805 102.15844727 C68.39479004 103.05370117 68.74783203 103.94895508 69.11157227 104.87133789 C81.64673725 137.01032481 89.95068572 170.90144636 95.41674805 204.90844727 C95.54439545 205.69011261 95.67204285 206.47177795 95.80355835 207.27713013 C98.79644969 225.80372633 99.24853696 244.18782798 99.28198242 262.93261719 C99.29166327 266.19240087 99.32280382 269.45154526 99.35424805 272.71118164 C99.45407276 292.46383379 97.57173132 311.95708431 93.41674805 331.28344727 C93.16513916 332.470271 92.91353027 333.65709473 92.65429688 334.87988281 C87.67705322 357.56585396 80.6539712 379.59250511 72.04174805 401.15844727 C72.70174805 401.48844727 73.36174805 401.81844727 74.04174805 402.15844727 C49.50539901 450.82878078 13.70814829 485.15912841 -38.49755859 502.5456543 C-47.36103291 505.41618194 -55.70208437 507.39142619 -65.02075195 507.78344727 C-66.17607422 507.84145508 -66.17607422 507.84145508 -67.35473633 507.90063477 C-69.22224672 507.99343031 -71.09021447 508.0769485 -72.95825195 508.15844727 C-74.95825195 502.40844727 -74.95825195 502.40844727 -74.95825195 500.15844727 C-72.55463122 498.25243935 -70.13596948 496.44497428 -67.64575195 494.65844727 C-61.58858548 490.22319975 -55.98297024 485.63583082 -50.5090332 480.49438477 C-48.03357574 478.22742679 -45.47574039 476.16398169 -42.83325195 474.09594727 C-29.95558199 463.65359597 -18.78078816 451.47271561 -8.95825195 438.15844727 C-8.24411133 437.25094727 -7.5299707 436.34344727 -6.79418945 435.40844727 C7.63441747 416.6902545 14.67403552 393.38687194 12.58862305 369.75219727 C11.47616962 362.44178905 9.53278642 356.0481233 5.04174805 350.15844727 C5.04174805 349.49844727 5.04174805 348.83844727 5.04174805 348.15844727 C4.38174805 348.15844727 3.72174805 348.15844727 3.04174805 348.15844727 C3.07655273 349.06723633 3.11135742 349.97602539 3.1472168 350.91235352 C3.68818249 376.02861761 -5.46903365 397.33688705 -22.3371582 415.75610352 C-27.56997432 421.18545733 -33.17295063 426.70977118 -39.95825195 430.15844727 C-40.94825195 429.82844727 -41.93825195 429.49844727 -42.95825195 429.15844727 C-41.34091609 423.21668872 -39.366752 417.45064929 -37.14575195 411.70922852 C-36.88930908 411.04349823 -36.63286621 410.37776794 -36.36865234 409.69186401 C-35.30220086 406.92910968 -34.23293494 404.16765372 -33.14672852 401.41259766 C-26.9424097 385.63294681 -21.27158432 368.04661517 -26.95825195 351.26000977 C-28.44975152 348.12553021 -30.27529611 346.33381687 -32.95825195 344.15844727 C-32.92344727 344.88805664 -32.88864258 345.61766602 -32.8527832 346.36938477 C-32.15769716 373.17984628 -41.60119209 396.69546064 -59.95825195 416.15844727 C-65.44019291 421.6314308 -71.39537998 426.06247043 -77.95825195 430.15844727 C-76.80775791 424.40597704 -75.28584287 418.83212261 -73.58325195 413.22094727 C-71.72911614 407.05792365 -70.10724199 400.87829098 -68.70825195 394.59594727 C-68.54534668 393.87093018 -68.38244141 393.14591309 -68.21459961 392.39892578 C-64.48199086 375.1817225 -62.78793358 354.27974388 -72.02075195 338.65844727 C-72.52735352 337.88500977 -73.03395508 337.11157227 -73.5559082 336.31469727 C-74.85828601 334.31215534 -75.91021194 332.30108192 -76.95825195 330.15844727 C-45.45699121 312.94387253 -12.46646017 298.45870278 23.71362305 308.93188477 C36.03043788 313.20746698 46.79448221 322.68692524 52.85424805 334.15844727 C60.85054567 351.48812835 58.81972844 371.84722077 52.41674805 389.40844727 C47.20908769 402.72444638 38.96366635 414.11226269 30.04174805 425.15844727 C29.31213867 426.08141602 28.5825293 427.00438477 27.83081055 427.95532227 C15.77457878 443.0147309 2.13340879 457.74497022 -12.7355957 470.05688477 C-13.34081055 470.6021582 -13.34081055 470.6021582 -13.95825195 471.15844727 C-13.95825195 471.48844727 -13.95825195 471.81844727 -13.95825195 472.15844727 C8.44751812 455.74694815 27.60660393 438.47225129 43.04174805 415.15844727 C43.58702148 414.33860352 44.13229492 413.51875977 44.6940918 412.67407227 C59.76797019 388.84374993 67.99626045 357.58392968 68.2800293 329.57641602 C68.28982315 328.77290207 68.299617 327.96938812 68.30970764 327.14152527 C68.88613211 267.47352221 51.65195362 217.71112258 9.54174805 174.47094727 C5.52092267 170.50020334 1.24850072 166.92166767 -3.1652832 163.39672852 C-4.95512543 161.96235145 -6.72560902 160.50326993 -8.4699707 159.01391602 C-58.46503766 116.52193721 -122.02485466 101.82541293 -185.95825195 98.15844727 C-181.02746733 87.80104493 -175.62284773 77.98538419 -169.38256836 68.36108398 C-167.83616912 65.96965204 -166.30909446 63.56645286 -164.7824707 61.16235352 C-158.5853617 51.45333578 -152.18305884 42.13099279 -144.95825195 33.15844727 C-144.31500977 32.3115332 -143.67176758 31.46461914 -143.0090332 30.59204102 C-129.83187591 13.63518831 -113.76923373 -1.408841 -94.95825195 -11.84155273 C-94.30598633 -12.20893555 -93.6537207 -12.57631836 -92.98168945 -12.95483398 C-62.08115786 -29.42240123 -26.23427377 -21.18876559 0 0 Z M-135.59838867 27.5168457 C-144.45946253 38.21376862 -152.45846975 49.47858604 -159.95825195 61.15844727 C-160.52253906 62.03291504 -161.08682617 62.90738281 -161.66821289 63.80834961 C-163.54084834 66.71346246 -165.40720838 69.62249465 -167.27075195 72.53344727 C-167.85783936 73.44892334 -168.44492676 74.36439941 -169.04980469 75.30761719 C-175.83544625 84.60746561 -175.83544625 84.60746561 -178.95825195 95.15844727 C-178.21704102 95.19284912 -177.47583008 95.22725098 -176.7121582 95.26269531 C-149.2942364 96.6155533 -122.12923117 99.43301298 -95.95825195 108.15844727 C-95.1403418 108.42383301 -94.32243164 108.68921875 -93.47973633 108.96264648 C-67.22866696 117.52033141 -42.47032268 129.0877087 -19.95825195 145.15844727 C-19.29841309 145.62895508 -18.63857422 146.09946289 -17.95874023 146.58422852 C-9.713807 152.51229054 -1.95487579 158.72953722 5.43237305 165.69750977 C7.67344164 167.81109242 9.95287722 169.8424959 12.29174805 171.84594727 C48.20138197 203.16507129 68.62268289 250.89791857 72.72924805 297.84594727 C75.53182522 348.87620656 65.1002607 399.96181799 30.40893555 439.13110352 C27.65974434 442.17851044 24.85741749 445.17237707 22.04174805 448.15844727 C21.31213867 448.94219727 20.5825293 449.72594727 19.83081055 450.53344727 C13.47561884 457.1485167 6.37421219 462.68260655 -0.95825195 468.15844727 C-1.60294434 468.64216797 -2.24763672 469.12588867 -2.91186523 469.62426758 C-19.14908074 481.7094464 -36.74324324 491.39875425 -54.95825195 500.15844727 C-50.70218815 501.5771352 -47.50663805 500.05845459 -43.39575195 498.72094727 C-42.54948242 498.44726318 -41.70321289 498.1735791 -40.83129883 497.89160156 C-20.28183864 491.05642331 -0.76376933 480.87249326 16.04174805 467.15844727 C16.56430176 466.73595703 17.08685547 466.3134668 17.62524414 465.87817383 C28.89960589 456.72632014 39.42160062 446.91319376 48.04174805 435.15844727 C49.21157227 433.56323242 49.21157227 433.56323242 50.4050293 431.93579102 C74.14467041 398.50459867 85.91480317 353.26264401 92.04174805 313.15844727 C92.20400879 312.16796387 92.36626953 311.17748047 92.53344727 310.15698242 C98.2846177 274.32641907 97.05207148 234.70516403 90.04174805 199.15844727 C89.86240723 198.22355469 89.68306641 197.28866211 89.49829102 196.32543945 C88.07725815 188.9227945 86.58500135 181.53654609 85.04174805 174.15844727 C84.84323242 173.2088916 84.6447168 172.25933594 84.44018555 171.28100586 C73.05708269 117.52430263 53.06691289 62.66979006 16.04174805 21.15844727 C14.90479492 19.82233398 14.90479492 19.82233398 13.74487305 18.45922852 C8.39385163 12.26380833 2.54730409 7.11638527 -3.95825195 2.15844727 C-4.76004883 1.54098633 -5.5618457 0.92352539 -6.38793945 0.28735352 C-13.11399311 -4.66346303 -20.32671252 -8.49961047 -27.95825195 -11.84155273 C-29.11454102 -12.35331055 -30.27083008 -12.86506836 -31.4621582 -13.39233398 C-72.53410325 -28.85420089 -109.96408501 -2.60518715 -135.59838867 27.5168457 Z " fill="#414242" transform="translate(648.958251953125,122.841552734375)"/>
<path d="M0 0 C34.88960526 -0.96175757 70.43859457 2.86641527 103 16 C103.70898438 16.27956543 104.41796875 16.55913086 105.1484375 16.84716797 C126.91549145 25.5104959 145.74098803 39.54594596 164 54 C164.93199219 54.73734375 165.86398437 55.4746875 166.82421875 56.234375 C176.19475612 63.77358053 184.97323101 71.90343747 193.5 80.375 C193.99234131 80.86266846 194.48468262 81.35033691 194.99194336 81.8527832 C197.87855587 84.75235134 200.50246596 87.76027424 203 91 C196.23469566 109.93605286 177.05404809 124.8586097 159.5 133.25 C142.24968001 140.45013356 123.90344627 137.38078479 107.04980469 130.82543945 C92.07573403 124.60586539 79.48430861 114.25753806 68 103 C67.05511719 102.09378906 66.11023438 101.18757813 65.13671875 100.25390625 C58.92251798 94.19441587 53.31669564 87.85573911 48 81 C47.53980469 80.41089844 47.07960938 79.82179688 46.60546875 79.21484375 C28.27687761 55.66332954 10.76039961 27.8620801 0 0 Z " fill="#F7D1A2" transform="translate(464,236)"/>
<path d="M0 0 C13.47369275 13.35550247 20.82340207 30.09776521 21.109375 49.0859375 C20.94168271 67.04113514 13.67167382 83.47165707 1.2421875 96.28125 C-13.45270473 109.81484375 -30.88548752 115.60958132 -50.609375 114.97265625 C-56.44989057 114.65114933 -61.80401282 113.57312817 -67.328125 111.6484375 C-68.17246094 111.38160156 -69.01679688 111.11476563 -69.88671875 110.83984375 C-76.94061333 108.36382771 -82.49179016 104.23992813 -88.328125 99.6484375 C-88.96621094 99.18824219 -89.60429687 98.72804688 -90.26171875 98.25390625 C-102.28865033 89.06010867 -110.15313849 72.30450045 -112.328125 57.6484375 C-113.75354014 41.85574276 -111.50993568 25.03563336 -101.4296875 12.23828125 C-99.13721602 9.62718106 -96.75174636 7.13815762 -94.328125 4.6484375 C-93.38388639 3.6211962 -92.44123477 2.59249435 -91.5 1.5625 C-80.79692211 -9.92657964 -66.66690811 -17.15849439 -50.75 -18.3203125 C-31.04063224 -18.57462692 -15.03169096 -12.7291487 0 0 Z " fill="#D8EBF6" transform="translate(537.328125,477.3515625)"/>
<path d="M0 0 C11.02732501 11.02732501 15.22543068 23.98917869 15.25439453 39.32714844 C14.56792618 62.6291984 2.45624837 82.33021786 -11.75878906 99.90478516 C-13.04002682 101.49018054 -14.29955619 103.09307614 -15.5546875 104.69921875 C-25.54431598 117.30876867 -36.98991909 130.09509438 -49.5625 140.1875 C-50.98369141 141.33025391 -50.98369141 141.33025391 -52.43359375 142.49609375 C-53.36300781 143.23988281 -54.29242187 143.98367188 -55.25 144.75 C-56.06597656 145.42160156 -56.88195312 146.09320312 -57.72265625 146.78515625 C-66.80230343 154.21127419 -76.44320478 160.75474241 -86.4375 166.875 C-87.08549561 167.27775146 -87.73349121 167.68050293 -88.40112305 168.09545898 C-89.9803254 169.04491936 -91.611749 169.90650207 -93.25 170.75 C-93.91 170.42 -94.57 170.09 -95.25 169.75 C-94.37859375 169.01136719 -93.5071875 168.27273438 -92.609375 167.51171875 C-75.45190567 152.92180282 -57.7893193 137.87266864 -44.25 119.75 C-43.50492188 118.76 -42.75984375 117.77 -41.9921875 116.75 C-32.07887222 103.0393809 -26.21241588 89.14385798 -22.25 72.75 C-21.98062622 71.81389893 -21.98062622 71.81389893 -21.70581055 70.85888672 C-20.70229536 66.21594927 -21.0218972 61.35479499 -21 56.625 C-20.979375 55.53445313 -20.95875 54.44390625 -20.9375 53.3203125 C-20.86803901 38.80296465 -25.67831784 28.53499773 -35.46484375 17.93359375 C-35.92628784 17.43178589 -36.38773193 16.92997803 -36.86315918 16.41296387 C-37.98918241 15.18927908 -39.11918082 13.96925418 -40.25 12.75 C-40.22381592 13.63034912 -40.19763184 14.51069824 -40.1706543 15.41772461 C-39.32495757 48.16866849 -39.32495757 48.16866849 -45.25 61.75 C-45.5176416 62.37487305 -45.7852832 62.99974609 -46.06103516 63.64355469 C-49.46456993 71.44755885 -53.64585413 78.33365908 -59.25 84.75 C-60.35408203 86.05130859 -60.35408203 86.05130859 -61.48046875 87.37890625 C-65.40847031 91.89906885 -69.01553824 95.7972267 -74.25 98.75 C-72.94967145 94.75277596 -71.53134595 90.83692946 -69.97265625 86.93359375 C-69.32586914 85.29100586 -69.32586914 85.29100586 -68.66601562 83.61523438 C-67.77353651 81.35505999 -66.87522569 79.09717847 -65.97070312 76.84179688 C-61.68675714 65.90528499 -58.70473156 55.30527838 -58.875 43.5 C-58.86339844 42.68015625 -58.85179687 41.8603125 -58.83984375 41.015625 C-58.87482275 33.6467156 -60.40146578 26.47872706 -64.9375 20.5 C-65.37449219 19.89671875 -65.81148437 19.2934375 -66.26171875 18.671875 C-69.22872656 15.80396176 -72.7066431 13.83650817 -76.25 11.75 C-76.23428955 12.42353516 -76.2185791 13.09707031 -76.20239258 13.79101562 C-75.63271197 42.00102224 -79.27161307 66.2625394 -99.09375 87.578125 C-101.6832033 90.18634246 -104.33834626 92.51026635 -107.25 94.75 C-105.91523478 87.10066029 -104.37129996 79.51709806 -102.6875 71.9375 C-98.18593081 51.63450425 -95.60968772 29.95082826 -107.21069336 11.3737793 C-107.55366455 10.83793213 -107.89663574 10.30208496 -108.25 9.75 C-100.88939146 5.01773517 -93.32336178 1.41079099 -85.25 -1.9375 C-84.13882813 -2.40994141 -83.02765625 -2.88238281 -81.8828125 -3.36914062 C-54.54108013 -14.83658485 -25.30281251 -17.51733174 0 0 Z " fill="#F4CB99" transform="translate(687.25,445.25)"/>
<path d="M0 0 C5.02836261 1.67612087 9.14268971 4.56027166 13.5 7.5 C14.29446533 8.03318848 15.08893066 8.56637695 15.9074707 9.11572266 C22.83209432 13.80558455 29.48572784 18.75498431 36 24 C37.16402344 24.93199219 37.16402344 24.93199219 38.3515625 25.8828125 C39.94843803 27.19975766 41.48446966 28.59020434 43 30 C43 30.66 43 31.32 43 32 C43.99 32.33 44.98 32.66 46 33 C46 33.66 46 34.32 46 35 C46.66 35 47.32 35 48 35 C48 35.66 48 36.32 48 37 C48.66 37 49.32 37 50 37 C50 37.66 50 38.32 50 39 C50.66 39 51.32 39 52 39 C52 39.66 52 40.32 52 41 C52.66 41 53.32 41 54 41 C57 44.46153846 57 44.46153846 57 47 C57.66 47 58.32 47 59 47 C60.68753536 49.36437058 62.23543433 51.71476254 63.75 54.1875 C64.42107788 55.27756348 64.42107788 55.27756348 65.10571289 56.38964844 C76.17387658 74.66661613 81.49922916 93.95576936 77 115.3125 C72.1245033 131.38784054 62.37020836 144.9101582 51 157 C50.48308594 157.59296875 49.96617187 158.1859375 49.43359375 158.796875 C33.74753361 175.99829866 8.79819095 186.43062191 -13 193 C-14.15483887 193.35118896 -14.15483887 193.35118896 -15.33300781 193.70947266 C-69.42313096 209.82166857 -130.69170509 208.07024426 -184 190 C-185.19544434 189.60119629 -185.19544434 189.60119629 -186.41503906 189.19433594 C-224.33549021 176.3211407 -260.73562293 154.06099137 -291 128 C-290.67 127.01 -290.34 126.02 -290 125 C-285.4282755 126.62393303 -281.50259485 129.00051201 -277.375 131.5 C-251.21997038 147.02106429 -223.48729555 160.15556097 -193 164 C-192.16210938 164.11085938 -191.32421875 164.22171875 -190.4609375 164.3359375 C-149.95419781 168.86388121 -106.64836054 154.27863929 -75 129 C-70.56760051 125.44134865 -66.25027994 121.7741075 -62 118 C-61.34644531 117.41992188 -60.69289063 116.83984375 -60.01953125 116.2421875 C-54.50159322 111.02570451 -49.96750057 104.86067943 -45.38769531 98.82763672 C-44.5041091 97.66392695 -43.6159193 96.50368793 -42.72167969 95.34814453 C-34.48328876 84.66571944 -28.19993598 72.95177759 -22 61 C-21.56107422 60.15655029 -21.12214844 59.31310059 -20.66992188 58.4440918 C-17.80991757 52.84869143 -15.34161036 47.19103766 -13.125 41.3125 C-12.62009033 39.9819458 -12.62009033 39.9819458 -12.10498047 38.62451172 C-7.39372172 25.96921012 -3.68417302 12.98402723 0 0 Z M4 7 C0.93372348 11.27058011 -0.19961615 15.76130293 -1.5625 20.75 C-10.46700971 51.59357191 -24.90977157 81.58881536 -46 106 C-46.68191406 106.79148437 -47.36382813 107.58296875 -48.06640625 108.3984375 C-75.15736855 139.12414429 -114.29475495 164.22343953 -156.05566406 167.81689453 C-189.18931281 169.87744483 -220.09013554 165.64099254 -250.0012207 150.35058594 C-251.64288949 149.51676201 -253.31873618 148.75079339 -255 148 C-255.66 148.33 -256.32 148.66 -257 149 C-212.26997014 178.45145787 -160.80647841 200.09337352 -106.46875 200.16796875 C-105.59335571 200.17129715 -104.71796143 200.17462555 -103.81604004 200.17805481 C-101.97404499 200.18308093 -100.13204097 200.18546448 -98.29003906 200.18530273 C-95.53434409 200.18747295 -92.77906111 200.20563057 -90.0234375 200.22460938 C-79.22455 200.25851065 -68.70169978 199.6701437 -57.99606323 198.25469971 C-55.89126836 197.98612573 -53.78478398 197.75308372 -51.67480469 197.52905273 C-42.1785852 196.51927098 -33.16832589 194.55903487 -24 192 C-23.23703613 191.79391113 -22.47407227 191.58782227 -21.68798828 191.37548828 C2.2015071 184.8848857 24.1273525 175.25951169 43 159 C44.20849609 158.02546875 44.20849609 158.02546875 45.44140625 157.03125 C59.62173467 145.13663962 72.36276741 125.99396203 74.28417969 107.22387695 C74.4003822 104.33048415 74.40986048 101.45785645 74.375 98.5625 C74.39240234 97.12293945 74.39240234 97.12293945 74.41015625 95.65429688 C74.37036618 85.80625407 71.95941187 76.93933884 67.5 68.1875 C67.15815674 67.51299805 66.81631348 66.83849609 66.46411133 66.14355469 C62.53771283 58.70699598 57.48414304 52.33827715 52 46 C51.54189941 45.46358887 51.08379883 44.92717773 50.61181641 44.37451172 C44.36080542 37.10573926 37.60889507 30.85379037 30 25 C28.94585566 24.16893048 27.892494 23.3368674 26.83984375 22.50390625 C16.01567201 12.69780539 16.01567201 12.69780539 4 7 Z " fill="#58B6E6" transform="translate(743,466)"/>
<path d="M0 0 C53.51862673 -1.16960939 105.42854904 6.18659574 150 38 C151.24249577 38.86601093 152.48594777 39.73065196 153.73046875 40.59375 C170.61141629 52.3784751 186.56012406 65.44445162 201.1875 79.9375 C201.81132568 80.55206055 202.43515137 81.16662109 203.07788086 81.79980469 C211.6269003 90.40870601 211.6269003 90.40870601 212.5 96.47265625 C211.89420657 100.74633959 210.52493956 102.95291281 208 106.4375 C207.59426758 106.99953125 207.18853516 107.5615625 206.77050781 108.140625 C203.26963449 112.88110717 199.32860501 117.00583467 195 121 C194.154375 121.86625 193.30875 122.7325 192.4375 123.625 C176.74328961 138.91679474 160.51255714 145.33437865 138.87182617 145.38061523 C119.68936901 145.03190701 101.91764819 135.54914699 87 124 C86.16855469 123.3709375 85.33710937 122.741875 84.48046875 122.09375 C72.33278425 112.56057447 61.32220268 101.29606237 52 89 C51.48614746 88.32485352 50.97229492 87.64970703 50.44287109 86.95410156 C32.96248465 63.896141 18.60190324 39.40681947 5.625 13.5625 C5.0592627 12.43658447 4.49352539 11.31066895 3.91064453 10.15063477 C0 2.2576975 0 2.2576975 0 0 Z M6 4 C15.78424965 25.82431241 27.06284107 47.51642067 41 67 C41.84995529 68.21544928 42.69888478 69.43161643 43.546875 70.6484375 C51.46109983 81.94207226 60.01087445 92.41329849 69.49609375 102.41259766 C70.90157416 103.89610961 72.29501017 105.39100656 73.6875 106.88671875 C91.02775865 124.97529214 115.08873437 140.4371577 140.73120117 141.28149414 C158.50360583 141.54625606 172.45960434 135.38937558 186 124 C187.03125 123.195625 188.0625 122.39125 189.125 121.5625 C197.07371379 114.47777684 205.41100102 105.11113924 209 95 C197.95866481 82.86236202 186.94996572 71.13686455 174 61 C172.71680222 59.96564427 171.43429915 58.93042635 170.15234375 57.89453125 C133.56287773 28.59261122 96.72422316 11.46636908 50 6 C49.18789063 5.89703613 48.37578125 5.79407227 47.5390625 5.68798828 C33.67743431 3.93590948 19.95966246 3.7650497 6 4 Z " fill="#444240" transform="translate(458,232)"/>
<path d="M0 0 C0.9384375 0.38414062 1.876875 0.76828125 2.84375 1.1640625 C9.2237258 4.05868115 14.95557423 8.13803219 20 13 C20 13.66 20 14.32 20 15 C20.66 15 21.32 15 22 15 C22 15.66 22 16.32 22 17 C22.639375 17.2475 23.27875 17.495 23.9375 17.75 C26 19 26 19 26.75 21.125 C26.8325 21.74375 26.915 22.3625 27 23 C27.66 23 28.32 23 29 23 C33.56551441 31.1333392 37.87133091 38.84512242 40 48 C40.20238281 48.67546875 40.40476562 49.3509375 40.61328125 50.046875 C45.40547137 67.39003925 40.76145735 85.8393436 32.3359375 101.23046875 C23.14730158 116.78625161 7.37696664 127.62367504 -9.58203125 133.171875 C-29.83608897 138.07914384 -49.22205339 134.37995346 -67 124 C-70.39453125 121.90625 -70.39453125 121.90625 -73 120 C-73 119.34 -73 118.68 -73 118 C-73.58136719 117.75121094 -74.16273438 117.50242187 -74.76171875 117.24609375 C-85.54826086 111.24102057 -92.32123166 96.68924712 -95.99609375 85.53125 C-101.92512436 64.67582714 -98.13416688 45.52140828 -88.02441406 26.79150391 C-83.96053708 19.68456174 -79.89030355 14.44041784 -73 10 C-72.67 9.34 -72.34 8.68 -72 8 C-70.28224375 6.96531125 -68.52520397 5.99519407 -66.75 5.0625 C-62.59316568 2.86629836 -62.59316568 2.86629836 -58.56640625 0.4453125 C-41.63662938 -9.08896062 -17.30284068 -7.31732281 0 0 Z M-76.1875 19.8125 C-76.87263672 20.47314453 -77.55777344 21.13378906 -78.26367188 21.81445312 C-89.79598006 33.28016473 -95.11332504 48.6536583 -95.375 64.6875 C-95.32486183 82.75952564 -87.73346611 100.16767157 -75 113 C-58.76865083 127.05985786 -41.76659946 132.14142314 -20.61425781 131.21777344 C-4.01698656 129.83518416 10.7117091 120.92649816 22 109 C34.52759674 94.07668755 39.50609577 76.14444954 38 57 C35.9547499 40.51869297 27.69478245 25.07432228 14.9375 14.2890625 C12.02819165 12.05512931 9.07977288 9.99079241 6 8 C5.25234375 7.49984375 4.5046875 6.9996875 3.734375 6.484375 C-23.57957589 -10.30864666 -55.07060583 -1.26397906 -76.1875 19.8125 Z " fill="#57B6E6" transform="translate(520,461)"/>
<path d="M0 0 C0.99 0.495 0.99 0.495 2 1 C-21.7563727 48.12317143 -56.12458613 81.93082703 -106.14453125 100.28515625 C-109.07916098 101.01981732 -110.19814114 100.83781626 -113 100 C-112.46334717 99.81002441 -111.92669434 99.62004883 -111.3737793 99.42431641 C-87.00142182 90.70419275 -65.62696013 78.96723189 -46 62 C-44.75863281 60.94232422 -44.75863281 60.94232422 -43.4921875 59.86328125 C-25.86802246 44.47666694 -11.31296335 24.9641253 -2.84765625 3.01171875 C-2 1 -2 1 0 0 Z " fill="#316B8E" transform="translate(721,524)"/>
<path d="M0 0 C0.495 1.485 0.495 1.485 1 3 C-14.50564267 16.16054547 -33.39704703 26.87881154 -52.5625 33.75 C-53.60615723 34.12825928 -53.60615723 34.12825928 -54.67089844 34.51416016 C-58.23293854 35.71068585 -60.42965033 36.10096742 -64 35 C-63.46334717 34.81002441 -62.92669434 34.62004883 -62.3737793 34.42431641 C-39.25768138 26.15366666 -19.41396682 14.96493276 0 0 Z " fill="#365D74" transform="translate(672,589)"/>
<path d="M0 0 C0.33 0.66 0.66 1.32 1 2 C-6.62704029 11.76759928 -14.40269685 21.10249169 -24 29 C-24.33 28.34 -24.66 27.68 -25 27 C-22.48963758 24.4806075 -19.97131553 21.97209784 -17.421875 19.4921875 C-11.12355537 13.32278084 -5.44484536 6.95058037 0 0 Z " fill="#346684" transform="translate(698,562)"/>
<path d="M0 0 C0.66 0.33 1.32 0.66 2 1 C0.65440678 5.03677965 -1.96001449 6.16722793 -5.4375 8.25 C-6.03626953 8.62640625 -6.63503906 9.0028125 -7.25195312 9.390625 C-8.79425121 10.33016605 -10.39443615 11.17320769 -12 12 C-12.66 11.67 -13.32 11.34 -14 11 C-13.07316406 10.28972656 -12.14632812 9.57945312 -11.19140625 8.84765625 C-9.98174158 7.91930895 -8.77210776 6.99092145 -7.5625 6.0625 C-6.95083984 5.59392578 -6.33917969 5.12535156 -5.70898438 4.64257812 C-2.75031115 2.44328176 -2.75031115 2.44328176 0 0 Z " fill="#34566B" transform="translate(632,594)"/>
<path d="M0 0 C4.9723422 1.49170266 9.41845739 3.60457417 14 6 C13.67 6.99 13.34 7.98 13 9 C11.01716521 7.88147781 9.03882377 6.75498675 7.0625 5.625 C5.40927734 4.68527344 5.40927734 4.68527344 3.72265625 3.7265625 C1 2 1 2 0 0 Z " fill="#D2ECF9" transform="translate(486,614)"/>
<path d="M0 0 C4.05606165 0.46800711 7.46588679 0.87953208 11 3 C10 5 10 5 8 6 C6.0546875 5.0390625 6.0546875 5.0390625 3.875 3.625 C3.15054688 3.16351562 2.42609375 2.70203125 1.6796875 2.2265625 C1.12539063 1.82179688 0.57109375 1.41703125 0 1 C0 0.67 0 0.34 0 0 Z " fill="#1977B5" transform="translate(815,16)"/>
<path d="M0 0 C-2.4453385 2.96527758 -4.44602347 3.55582214 -8.1875 4.1875 C-9.08855469 4.34605469 -9.98960937 4.50460937 -10.91796875 4.66796875 C-11.94857422 4.83232422 -11.94857422 4.83232422 -13 5 C-4.53233181 -1.51077727 -4.53233181 -1.51077727 0 0 Z " fill="#E1DDD9" transform="translate(607,619)"/>
<path d="M0 0 C0.66 0.33 1.32 0.66 2 1 C0.88424427 4.34726719 0.48655378 4.62079748 -2.4375 6.25 C-4.2009375 7.11625 -4.2009375 7.11625 -6 8 C-6.66 7.67 -7.32 7.34 -8 7 C-5.36 4.69 -2.72 2.38 0 0 Z " fill="#D5D1CD" transform="translate(600,608)"/>
</svg>
